PathFileType	4	(X/Y/Z)	RBDS028\RBDS028runT25.trc
DataRate	CameraRate	NumFrames	NumMarkers	Units	OrigDataRate	OrigDataStartFrame	OrigNumFrames
150.000000	150.000000	6	33	mm	150.000000	3937	4500
Frame#	Time	L.ASIS			L.Heel.Bottom			L.Heel.Lateral			L.Heel.Top			L.Iliac.Crest			L.MT1			L.MT5			L.PSIS			L.Shank.Bottom.Lateral			L.Shank.Bottom.Medial			L.Shank.Top.Lateral			L.Shank.Top.Medial			L.Thigh.Bottom.Lateral			L.Thigh.Bottom.Medial			L.Thigh.Top.Lateral			L.Thigh.Top.Medial			R.ASIS			R.ASY			R.Heel.Bottom			R.Heel.Lateral			R.Heel.Top			R.Iliac.Crest			R.MT1			R.MT5			R.PSIS			R.Shank.Bottom.Lateral			R.Shank.Bottom.Medial			R.Shank.Top.Lateral			R.Shank.Top.Medial			R.Thigh.Bottom.Lateral			R.Thigh.Bottom.Medial			R.Thigh.Top.Lateral			R.Thigh.Top.Medial			
		X1	Y1	Z1	X2	Y2	Z2	X3	Y3	Z3	X4	Y4	Z4	X5	Y5	Z5	X6	Y6	Z6	X7	Y7	Z7	X8	Y8	Z8	X9	Y9	Z9	X10	Y10	Z10	X11	Y11	Z11	X12	Y12	Z12	X13	Y13	Z13	X14	Y14	Z14	X15	Y15	Z15	X16	Y16	Z16	X17	Y17	Z17	X18	Y18	Z18	X19	Y19	Z19	X20	Y20	Z20	X21	Y21	Z21	X22	Y22	Z22	X23	Y23	Z23	X24	Y24	Z24	X25	Y25	Z25	X26	Y26	Z26	X27	Y27	Z27	X28	Y28	Z28	X29	Y29	Z29	X30	Y30	Z30	X31	Y31	Z31	X32	Y32	Z32	X33	Y33	Z33	

3938	26.24666666666667	2198.114580901718	890.5952746601159	925.5036272294188	1698.717771182544	313.6652922094089	1032.16665397963	1707.012390877705	292.2479947553642	982.0073431152845	1741.916803680571	315.6422413672438	1017.689123907307	2140.937612381103	950.2199902706016	903.5441741034385	1772.447762164711	104.5786852512701	1038.22514688179	1724.703270034461	141.9389682215612	942.9181421912948	2049.457133651718	917.12030305136	1004.301350952157	1819.694620363728	307.5442375425665	944.7095326840613	1803.698451819756	334.4690061583754	985.0668932461675	1874.663374946562	363.8757350284677	925.6314141390336	1863.766335448556	392.1406946785223	968.9568780017767	2111.544571285463	556.2156072029082	885.2912535448449	2048.771253308895	563.3197845461266	921.1090903392823	2115.955565704975	665.5959479242545	872.7564876794656	2057.16172746672	671.5195343209047	909.8866062423507	2205.167634451459	901.6106641222249	1158.369852452333	2446.557261292713	96.51642200232376	1080.414384699657	2267.655055626049	45.69426508695689	1047.150252162228	2295.842733819844	52.73663251749075	1094.329358835728	2276.581009098291	88.53026296318882	1059.855154920049	2149.734613513865	960.3767477376861	1187.169238719238	2484.195906247305	68.57933283413321	1022.106422270883	2445.793954926834	31.41476673413644	1122.789278356579	2053.452864103211	912.8338679022851	1098.009759990005	2312.262497135582	179.6627858214407	1129.287625156836	2279.063631109512	181.5340686799997	1084.193591403646	2286.361699241744	254.2457789565754	1148.443842960919	2257.166358216428	255.9834302796066	1103.082426886608	2258.726555120818	557.7827829248561	1193.63768844783	2203.896686868281	534.9035859397179	1153.71132466799	2208.88917229396	655.1783160323201	1208.462539879989	2155.251366326121	632.1912746346798	1172.351142940182	
3939	26.25333333333333	2198.915211576824	887.8177918761314	925.8718282355372	1704.074093408682	322.5609033089983	1032.633264307286	1711.623187479639	301.9264389432275	982.0123234641158	1747.367450641844	323.3505881847499	1018.248266063945	2140.892829252371	946.9338463517992	903.4111569974348	1770.75874398304	110.7393381770146	1034.447331900107	1724.398807904359	151.9248748699228	939.7526527851063	2049.865299019799	913.2381029913572	1003.67920564153	1824.254238060727	312.7906130990942	943.9751607929493	1809.753380265913	340.0572737135343	984.6704225765245	1881.26413185384	367.0667104605072	924.8067988001796	1871.871191084475	395.4768187578161	968.3755804251032	2119.438524168808	551.7359664082612	883.1858854752234	2056.788203000476	556.8191509791317	919.6164417631147	2120.905116911802	661.3250595486043	871.6478036151304	2062.052576208907	665.3001215745346	909.0124107233368	2204.290200837724	898.8032466278795	1159.035380461472	2431.651154285872	91.32399801516819	1075.049025597791	2251.767464414965	42.52526878586158	1043.60632625163	2279.989152630833	50.60047853190405	1090.45993267905	2261.430701852621	85.53786123723762	1054.88151100106	2148.948204160146	957.3539443323884	1187.297353899942	2468.947739387643	60.91199397585586	1017.589466578275	2429.725754284736	28.58095387832309	1119.671214541033	2053.160243412005	909.21851166768	1097.395374754854	2300.306090983991	175.1567605199352	1124.701506125464	2266.937173416262	178.6853083783373	1079.893174733894	2276.782555510254	250.2679369097227	1144.828867601386	2247.70824750361	253.5080973152103	1099.519184980186	2256.750633288834	554.3158589187505	1192.662137345657	2201.957262189047	531.658860961761	1152.543561214981	2207.044662201894	651.7511749248322	1207.588093915124	2153.393692163493	628.9407547755807	1171.420182387155	
3940	26.26	2199.719076922545	884.5512457220802	926.3334087574927	1710.194403374702	330.8533643749807	1032.597456981299	1717.23223223036	310.9439212425815	981.6117081545174	1753.548767501211	330.5818042464827	1018.446227888463	2141.079633736405	943.0341234751412	903.2818364189465	1770.425784930726	116.9265190962702	1030.85701095581	1725.722697971484	161.4638976980984	936.5969038513809	2050.187562203037	908.7489265812176	1003.049919750521	1829.761608258643	317.7260637589465	943.050785385243	1816.678598408278	345.2912781515012	984.0397220643989	1888.696105515986	369.9253173476757	923.816193183827	1880.6937711928	398.4424787246207	967.5876178488402	2127.388576085032	547.1407675189935	880.9361295382404	2065.01082907681	550.1771452383985	918.1213441000857	2125.885911828729	656.8663470470253	870.4852785098501	2067.110622784155	658.8724502552052	908.2176624086042	2203.219940171376	895.454056527711	1159.894862261117	2415.590346660659	86.68770612379329	1069.370053763776	2234.916335222212	38.98058075061194	1040.760030952716	2263.265232259375	48.58788654987621	1087.085938739482	2245.200580344411	82.25156181559936	1050.20767672486	2147.885838969519	953.8648542601695	1187.411091642378	2452.617157904682	53.72659002066464	1013.035798729318	2412.974220189583	26.66638654907171	1116.786225486077	2052.701096448622	905.1064506586866	1096.742307999255	2287.791208413848	170.4935906319546	1120.143017604311	2253.951821076124	175.742508180467	1075.946226996923	2266.989622434767	246.109500815531	1141.392901947296	2237.703914376804	250.9186318119463	1096.420564132432	2254.655487882756	550.4052394395762	1191.512462981075	2199.848400602855	528.0279341057129	1151.290758986828	2205.148769373656	647.9079768276846	1206.663274034385	2151.453574975857	625.3211371441504	1170.507480060507	
3941	26.26666666666667	2200.492313320509	880.8382726560137	926.8962987180328	1717.089205106432	338.5113002943329	1031.981076195642	1723.820273435357	319.210204911903	980.7328710009473	1760.480163782248	337.277109592267	1018.195079928388	2141.504758035401	938.5558769749964	903.163614519313	1771.432516767615	123.006284354257	1027.482341122198	1728.600840523195	170.3459788631539	933.4713414103874	2050.371561810784	903.7302128014536	1002.435279078534	1836.21056018543	322.2563569085935	941.8830007975558	1824.435849634375	350.0862678758669	983.1111391454527	1896.925005311909	372.3926849669052	922.6099488379806	1890.178873122758	400.9887958914657	966.5406949364125	2135.34893727189	542.5142396778538	878.5850573856309	2073.357801187254	543.5012537629311	916.5926638170959	2130.890282528261	652.2929782041999	869.292760570361	2072.300296804226	652.335122092193	907.4676109308964	2201.955460065633	891.5798375016766	1160.94383519918	2398.705011668622	82.76582798587573	1063.605755796714	2217.483796414722	35.25038206284491	1038.54983378459	2246.025096462858	46.7693099103118	1084.192540515982	2228.254608340851	78.83061792883741	1045.895937491933	2146.577175466756	949.8968350558071	1187.524673021786	2435.589371922393	47.39317788325761	1008.648055749773	2395.875378443674	25.65298910342512	1114.178230626232	2052.048432878776	900.5721146279017	1096.068408859112	2274.950548105806	165.816431741599	1115.721607804151	2240.37881321155	172.804031699014	1072.430932682769	2257.141498496212	241.8707504952236	1138.192612076095	2227.334651919008	248.2792929777549	1093.829862478068	2252.366112614619	546.0930878574831	1190.194379317497	2197.496135511991	524.0758350947273	1149.942802754783	2203.16089646028	643.7066947829995	1205.702539320775	2149.391629256532	621.413779182496	1169.606554242258	
3942	26.27333333333333	2201.191294947342	876.7363730277771	927.5625368204401	1724.759127114134	345.5024413506989	1030.735550690028	1731.358602495617	326.6504418237381	979.3259576409904	1768.172332513191	343.3799695933962	1017.432623350695	2142.144769455016	933.5497944743903	903.060569308213	1773.750234748609	128.8350414842631	1024.327285478489	1732.945367035005	178.3918556763511	930.3772791514299	2050.361007094961	898.285104171665	1001.850615183409	1843.583095782049	326.2926056031582	940.4338367880154	1832.980014992751	354.3688801406927	981.8364617723355	1905.910847063267	374.4156018352166	921.1484551113309	1900.27546390197	403.0777846951905	965.1931642788689	2143.307604992033	537.9347657554524	876.1815901989253	2081.770317665864	536.8814917866864	914.9928072423027	2135.925611564374	647.6761758321288	868.0965703969928	2077.591844997963	645.7724572281439	906.7180946733264	2200.493769857662	887.2368092670387	1162.160405202643	2381.303904298222	79.63008132174154	1058.003854039852	2199.79312364135	31.55650648962222	1036.874803868532	2228.560530582651	45.20976287525797	1081.738125196999	2210.918615752435	75.46216311572334	1041.99107469065	2145.052516811404	945.4496389926268	1187.655049686217	2418.208857967855	42.16329888805819	1004.62299699989	2378.682208655803	25.43074521813495	1111.885432388451	2051.172385551014	895.7109239292814	1095.385822613711	2261.974209318903	161.2784015584875	1111.54875393147	2226.476117543063	169.9890809755714	1069.399422110568	2247.352537725734	237.6718332552626	1135.276895250576	2216.772091281685	245.6825633654468	1091.756686279759	2249.851846129384	541.4700832094835	1188.737067915715	2194.872298245251	519.8933799031051	1148.519972475771	2201.058544439933	639.2428657500874	1204.727828182113	2147.187384048145	617.3176287889754	1168.724627029088	
3943	26.28	2201.764101243248	872.3178574421137	928.3236732894118	1733.187176730925	351.7905804158951	1028.841285018994	1739.807127438346	333.2046929013121	977.3650395171594	1776.619386539828	348.8376080884132	1016.123401765135	2142.942713403966	928.0847451235448	902.970885005847	1777.346457189151	134.2689034428278	1021.373035152569	1738.669041796625	185.4588659649302	927.298430643928	2050.101663874205	892.5390764705411	1001.30046956635	1851.84960804085	329.7585093956773	938.682892937189	1842.259390194645	358.0822565304246	980.1853757377373	1915.608364830724	375.9537411940337	919.405972071743	1910.934050091358	404.688208205108	963.5168141715765	2151.282680607754	533.4786839812184	873.7783228106094	2090.214940161209	530.3952134930717	913.2848240894776	2141.011714697087	643.0877542699959	866.9229651168679	2082.963136796865	639.2576753028724	905.9192223101396	2198.831413613611	882.5216456621524	1163.501350450961	2363.661159418245	77.27097546881483	1052.803815595728	2182.096155867471	28.12469112116786	1035.618657949687	2211.094934258972	43.96132737534398	1079.670336987344	2193.464129457469	72.33845694550124	1038.527852760333	2143.337787242352	940.5435687688851	1187.816555471775	2400.75724143165	38.15433916377882	1001.12406297748	2361.565100957937	25.82401864957415	1109.934827541421	2050.044159695182	890.6358806637229	1094.697210167808	2249.003712272525	157.0314068969112	1107.734538585341	2212.47437188847	167.4270485228174	1066.882052053855	2237.689691134893	233.6431577786238	1132.692013447902	2206.168702079112	243.2391160460759	1090.186717220984	2247.127977947229	536.6653702980412	1187.198945468524	2191.995608054865	515.5882519858985	1147.07819423093	2198.83920247245	634.6412846867878	1203.772153039208	2144.840851326515	613.1409417395907	1167.887057013032	
